<svg width="65" height="65" viewBox="0 0 65 65" fill="none" xmlns="http://www.w3.org/2000/svg">
<circle cx="32.5" cy="32.5" r="32" fill="white" stroke="black"/>
<path d="M23.904 37.256V39H15.504V27.8H23.68V29.544H17.584V32.456H22.992V34.168H17.584V37.256H23.904ZM36.1748 27.8V39H34.4628L28.2868 31.416V39H26.2228V27.8H27.9348L34.1108 35.384V27.8H36.1748ZM46.8239 33.272H48.7919V37.736C48.2159 38.1947 47.5439 38.5467 46.7759 38.792C46.0079 39.0373 45.2185 39.16 44.4079 39.16C43.2665 39.16 42.2372 38.9147 41.3199 38.424C40.4025 37.9227 39.6825 37.2347 39.1599 36.36C38.6372 35.4853 38.3759 34.4987 38.3759 33.4C38.3759 32.3013 38.6372 31.3147 39.1599 30.44C39.6825 29.5653 40.4025 28.8827 41.3199 28.392C42.2479 27.8907 43.2879 27.64 44.4399 27.64C45.3785 27.64 46.2319 27.7947 46.9999 28.104C47.7679 28.4133 48.4132 28.8667 48.9359 29.464L47.6239 30.744C46.7705 29.8907 45.7412 29.464 44.5359 29.464C43.7465 29.464 43.0425 29.6293 42.4239 29.96C41.8159 30.2907 41.3359 30.7547 40.9839 31.352C40.6425 31.9493 40.4719 32.632 40.4719 33.4C40.4719 34.1467 40.6425 34.8187 40.9839 35.416C41.3359 36.0133 41.8159 36.4827 42.4239 36.824C43.0425 37.1653 43.7412 37.336 44.5199 37.336C45.3945 37.336 46.1625 37.144 46.8239 36.76V33.272Z" fill="black"/>
</svg>
