<svg width="65" height="65" viewBox="0 0 65 65" fill="none" xmlns="http://www.w3.org/2000/svg">
<circle cx="32.5" cy="32.5" r="32" fill="white" stroke="black"/>
<path d="M42.1102 33.7916C41.826 33.7916 41.5289 33.7012 41.2448 33.6366C40.6693 33.5098 40.1038 33.3414 39.5527 33.1328C38.9535 32.9149 38.2948 32.9262 37.7034 33.1646C37.112 33.4031 36.6298 33.8518 36.3494 34.4245L36.0652 35.0058C34.8071 34.3059 33.651 33.4367 32.6294 32.4224C31.6151 31.4007 30.7459 30.2447 30.046 28.9866L30.5885 28.6249C31.1612 28.3445 31.61 27.8622 31.8484 27.2709C32.0869 26.6795 32.0982 26.0208 31.8802 25.4216C31.6751 24.8693 31.5068 24.304 31.3764 23.7295C31.3119 23.4453 31.2602 23.1483 31.2214 22.8512C31.0646 21.9414 30.588 21.1174 29.8776 20.5278C29.1672 19.9381 28.2696 19.6215 27.3464 19.6349H23.4714C22.9148 19.6297 22.3635 19.7445 21.8552 19.9714C21.3469 20.1984 20.8934 20.5322 20.5257 20.9502C20.158 21.3682 19.8847 21.8605 19.7243 22.3936C19.5639 22.9267 19.5203 23.488 19.5964 24.0395C20.2846 29.4508 22.7559 34.4786 26.6201 38.3288C30.4843 42.1789 35.521 44.6319 40.9348 45.3003H41.4256C42.3781 45.3017 43.2977 44.9523 44.0089 44.3187C44.4176 43.9532 44.744 43.5052 44.9667 43.0042C45.1893 42.5032 45.3031 41.9607 45.3006 41.4124V37.5374C45.2848 36.6402 44.9581 35.7763 44.3762 35.0932C43.7944 34.41 42.9935 33.95 42.1102 33.7916ZM42.756 41.5416C42.7558 41.725 42.7165 41.9062 42.6408 42.0733C42.5651 42.2403 42.4546 42.3893 42.3169 42.5103C42.173 42.6356 42.0042 42.7292 41.8217 42.7848C41.6392 42.8405 41.447 42.857 41.2577 42.8333C36.4203 42.213 31.927 40 28.4866 36.5432C25.0462 33.0865 22.8546 28.5827 22.2573 23.7424C22.2367 23.5532 22.2547 23.3618 22.3102 23.1798C22.3657 22.9977 22.4576 22.8288 22.5802 22.6833C22.7012 22.5455 22.8502 22.4351 23.0173 22.3593C23.1843 22.2836 23.3655 22.2443 23.5489 22.2441H27.4239C27.7243 22.2374 28.0176 22.3357 28.2534 22.5219C28.4891 22.7081 28.6526 22.9708 28.7156 23.2645C28.7673 23.6176 28.8319 23.9663 28.9094 24.3108C29.0586 24.9917 29.2572 25.6608 29.5035 26.3128L27.6952 27.1524C27.5406 27.2234 27.4015 27.3242 27.2859 27.449C27.1704 27.5738 27.0806 27.7203 27.0218 27.8799C26.963 28.0395 26.9363 28.2092 26.9432 28.3792C26.9502 28.5491 26.9906 28.7161 27.0623 28.8703C28.9212 32.8522 32.122 36.053 36.1039 37.912C36.4184 38.0412 36.7711 38.0412 37.0856 37.912C37.2467 37.8544 37.3947 37.7654 37.5211 37.65C37.6475 37.5347 37.7497 37.3955 37.8219 37.2403L38.6227 35.432C39.2904 35.6708 39.9719 35.8692 40.6635 36.0262C41.008 36.1037 41.3567 36.1683 41.7098 36.2199C42.0035 36.283 42.2661 36.4464 42.4524 36.6822C42.6386 36.9179 42.7369 37.2112 42.7302 37.5116L42.756 41.5416Z" fill="black"/>
</svg>
