<svg width="22" height="21" viewBox="0 0 22 21" fill="none" xmlns="http://www.w3.org/2000/svg">
<g id="u:facebook">
<path id="Vector" d="M18.6996 1.75H3.12461C2.86934 1.75 2.62452 1.85141 2.44402 2.03191C2.26352 2.21241 2.16211 2.45723 2.16211 2.7125V18.2875C2.16211 18.4139 2.18701 18.5391 2.23538 18.6558C2.28375 18.7726 2.35464 18.8787 2.44402 18.9681C2.5334 19.0575 2.6395 19.1284 2.75628 19.1767C2.87305 19.2251 2.99821 19.25 3.12461 19.25H11.5071V12.4688H9.23211V9.84375H11.5071V7.875C11.46 7.41279 11.5146 6.94586 11.667 6.50697C11.8194 6.06808 12.066 5.66785 12.3895 5.33436C12.713 5.00087 13.1055 4.74219 13.5396 4.57646C13.9736 4.41073 14.4387 4.34197 14.9021 4.375C15.5831 4.37081 16.2639 4.40587 16.9409 4.48V6.8425H15.5496C14.4471 6.8425 14.2371 7.3675 14.2371 8.12875V9.8175H16.8621L16.5209 12.4425H14.2371V19.25H18.6996C18.826 19.25 18.9512 19.2251 19.0679 19.1767C19.1847 19.1284 19.2908 19.0575 19.3802 18.9681C19.4696 18.8787 19.5405 18.7726 19.5888 18.6558C19.6372 18.5391 19.6621 18.4139 19.6621 18.2875V2.7125C19.6621 2.5861 19.6372 2.46094 19.5888 2.34417C19.5405 2.22739 19.4696 2.12129 19.3802 2.03191C19.2908 1.94253 19.1847 1.87164 19.0679 1.82327C18.9512 1.7749 18.826 1.75 18.6996 1.75Z" fill="white"/>
</g>
</svg>
