<svg width="152" height="24" viewBox="0 0 152 24" fill="none" xmlns="http://www.w3.org/2000/svg">
<g id="Transceka">
<g id="Transceka_2">
<path d="M0 0.560059H12.3062V4.73779H8.24951V22.8262H3.95068V4.73779H0V0.560059Z" fill="white"/>
<path d="M13.7896 6.35742H17.3315V8.43115C17.715 7.61377 18.2246 6.99316 18.8604 6.56934C19.4961 6.14551 20.1924 5.93359 20.9492 5.93359C21.484 5.93359 22.0441 6.07487 22.6294 6.35742L21.3428 9.91455C20.8584 9.67236 20.4598 9.55127 20.147 9.55127C19.5112 9.55127 18.9714 9.94482 18.5273 10.7319C18.0934 11.519 17.8765 13.063 17.8765 15.3638L17.8916 16.166V22.8262H13.7896V6.35742Z" fill="white"/>
<path d="M36.8579 6.35742H40.9751V22.8262H36.8579V21.0854C36.0506 21.8524 35.2383 22.4074 34.4209 22.7505C33.6136 23.0835 32.7357 23.25 31.7871 23.25C29.6579 23.25 27.8162 22.4276 26.2622 20.7827C24.7082 19.1278 23.9312 17.0742 23.9312 14.6221C23.9312 12.0791 24.6829 9.99528 26.1865 8.37061C27.6901 6.74593 29.5166 5.93359 31.666 5.93359C32.6549 5.93359 33.5833 6.12028 34.4512 6.49365C35.319 6.86702 36.1213 7.42708 36.8579 8.17383V6.35742ZM32.5137 9.74805C31.2321 9.74805 30.1675 10.2021 29.3198 11.1104C28.4722 12.0085 28.0483 13.1639 28.0483 14.5767C28.0483 15.9995 28.4772 17.1701 29.335 18.0884C30.2028 19.0067 31.2674 19.4658 32.5288 19.4658C33.8306 19.4658 34.9103 19.0168 35.7681 18.1187C36.6258 17.2104 37.0547 16.0247 37.0547 14.5615C37.0547 13.1286 36.6258 11.9681 35.7681 11.0801C34.9103 10.1921 33.8255 9.74805 32.5137 9.74805Z" fill="white"/>
<path d="M45.1528 6.35742H49.27V8.0376C50.2085 7.25049 51.0562 6.70557 51.813 6.40283C52.5799 6.09001 53.362 5.93359 54.1592 5.93359C55.7939 5.93359 57.1815 6.50374 58.3218 7.64404C59.2804 8.61279 59.7598 10.0457 59.7598 11.9429V22.8262H55.6729V15.606C55.6729 13.6382 55.582 12.3314 55.4004 11.6855C55.2288 11.0397 54.9211 10.5503 54.4771 10.2173C54.0431 9.87419 53.5033 9.70264 52.8574 9.70264C52.0199 9.70264 51.2983 9.98519 50.6929 10.5503C50.0975 11.1053 49.6838 11.8773 49.4517 12.8662C49.3306 13.3809 49.27 14.4959 49.27 16.2114V22.8262H45.1528V6.35742Z" fill="white"/>
<path d="M73.8521 8.6582L71.2939 11.2163C70.2546 10.187 69.311 9.67236 68.4634 9.67236C67.9992 9.67236 67.6359 9.77327 67.3735 9.9751C67.1112 10.1668 66.98 10.409 66.98 10.7017C66.98 10.9237 67.0607 11.1305 67.2222 11.3223C67.3937 11.5039 67.8075 11.7562 68.4634 12.0791L69.9771 12.8359C71.5714 13.623 72.6663 14.4253 73.2617 15.2427C73.8571 16.0601 74.1548 17.0187 74.1548 18.1187C74.1548 19.5819 73.6149 20.8029 72.5352 21.7817C71.4655 22.7606 70.0275 23.25 68.2212 23.25C65.8195 23.25 63.9022 22.3115 62.4692 20.4346L65.0122 17.6646C65.4966 18.2297 66.0617 18.6888 66.7075 19.042C67.3634 19.3851 67.9437 19.5566 68.4482 19.5566C68.9932 19.5566 69.4321 19.4255 69.7651 19.1631C70.0981 18.9007 70.2646 18.598 70.2646 18.2549C70.2646 17.6191 69.6642 16.9985 68.4634 16.3931L67.0708 15.6968C64.4067 14.3547 63.0747 12.6745 63.0747 10.6562C63.0747 9.35449 63.5742 8.24447 64.5732 7.32617C65.5824 6.39779 66.869 5.93359 68.4331 5.93359C69.5028 5.93359 70.5068 6.17074 71.4453 6.64502C72.3939 7.10921 73.1961 7.78027 73.8521 8.6582Z" fill="white"/>
<path d="M93.5449 9.6875L90.1089 11.5796C89.4631 10.9035 88.8223 10.4342 88.1865 10.1719C87.5609 9.9095 86.8242 9.77832 85.9766 9.77832C84.4326 9.77832 83.1813 10.2425 82.2227 11.1709C81.2741 12.0892 80.7998 13.2699 80.7998 14.7129C80.7998 16.1156 81.2589 17.2609 82.1772 18.1489C83.0955 19.0369 84.3014 19.481 85.7949 19.481C87.6416 19.481 89.0796 18.8503 90.1089 17.5889L93.3633 19.814C91.5973 22.1047 89.1048 23.25 85.8857 23.25C82.9896 23.25 80.7191 22.3923 79.0742 20.6768C77.4395 18.9613 76.6221 16.9531 76.6221 14.6523C76.6221 13.0579 77.0207 11.5897 77.8179 10.2476C78.6151 8.90544 79.7251 7.85091 81.1479 7.08398C82.5809 6.31706 84.1803 5.93359 85.9463 5.93359C87.5811 5.93359 89.0493 6.26156 90.3511 6.91748C91.6528 7.56331 92.7174 8.48665 93.5449 9.6875Z" fill="white"/>
<path d="M113.783 15.7876H100.508C100.7 16.9582 101.209 17.8916 102.037 18.5879C102.874 19.2741 103.939 19.6172 105.23 19.6172C106.774 19.6172 108.101 19.0773 109.211 17.9976L112.693 19.6323C111.825 20.8634 110.786 21.7767 109.575 22.3721C108.364 22.9574 106.926 23.25 105.261 23.25C102.677 23.25 100.573 22.4377 98.9487 20.813C97.3241 19.1782 96.5117 17.1348 96.5117 14.6826C96.5117 12.1699 97.319 10.0861 98.9336 8.43115C100.558 6.76611 102.592 5.93359 105.034 5.93359C107.627 5.93359 109.736 6.76611 111.361 8.43115C112.986 10.0861 113.798 12.2759 113.798 15.0005L113.783 15.7876ZM109.635 12.5332C109.363 11.6149 108.823 10.8682 108.016 10.293C107.218 9.71777 106.29 9.43018 105.23 9.43018C104.08 9.43018 103.071 9.75309 102.203 10.3989C101.658 10.8026 101.154 11.514 100.689 12.5332H109.635Z" fill="white"/>
<path d="M117.173 0H121.306V13.1538L127.391 6.35742H132.567L125.483 14.2588L133.43 22.8262H128.299L121.306 15.2427V22.8262H117.173V0Z" fill="white"/>
<path d="M147.295 6.35742H151.413V22.8262H147.295V21.0854C146.488 21.8524 145.676 22.4074 144.858 22.7505C144.051 23.0835 143.173 23.25 142.225 23.25C140.095 23.25 138.254 22.4276 136.7 20.7827C135.146 19.1278 134.369 17.0742 134.369 14.6221C134.369 12.0791 135.12 9.99528 136.624 8.37061C138.128 6.74593 139.954 5.93359 142.104 5.93359C143.092 5.93359 144.021 6.12028 144.889 6.49365C145.757 6.86702 146.559 7.42708 147.295 8.17383V6.35742ZM142.951 9.74805C141.67 9.74805 140.605 10.2021 139.757 11.1104C138.91 12.0085 138.486 13.1639 138.486 14.5767C138.486 15.9995 138.915 17.1701 139.772 18.0884C140.64 19.0067 141.705 19.4658 142.966 19.4658C144.268 19.4658 145.348 19.0168 146.206 18.1187C147.063 17.2104 147.492 16.0247 147.492 14.5615C147.492 13.1286 147.063 11.9681 146.206 11.0801C145.348 10.1921 144.263 9.74805 142.951 9.74805Z" fill="white"/>
</g>
</g>
</svg>
