<svg width="22" height="21" viewBox="0 0 22 21" fill="none" xmlns="http://www.w3.org/2000/svg">
<g id="u:linkedin">
<path id="Vector" d="M18.3236 1.75H3.50109C3.33447 1.74769 3.16903 1.77822 3.01421 1.83985C2.8594 1.90148 2.71823 1.99301 2.59879 2.1092C2.47935 2.22539 2.38397 2.36397 2.31809 2.51703C2.25221 2.67009 2.21713 2.83463 2.21484 3.00125V17.9987C2.21713 18.1654 2.25221 18.3299 2.31809 18.483C2.38397 18.636 2.47935 18.7746 2.59879 18.8908C2.71823 19.007 2.8594 19.0985 3.01421 19.1602C3.16903 19.2218 3.33447 19.2523 3.50109 19.25H18.3236C18.4902 19.2523 18.6557 19.2218 18.8105 19.1602C18.9653 19.0985 19.1065 19.007 19.2259 18.8908C19.3453 18.7746 19.4407 18.636 19.5066 18.483C19.5725 18.3299 19.6076 18.1654 19.6098 17.9987V3.00125C19.6076 2.83463 19.5725 2.67009 19.5066 2.51703C19.4407 2.36397 19.3453 2.22539 19.2259 2.1092C19.1065 1.99301 18.9653 1.90148 18.8105 1.83985C18.6557 1.77822 18.4902 1.74769 18.3236 1.75ZM7.49109 16.3975H4.86609V8.5225H7.49109V16.3975ZM6.17859 7.42C5.81657 7.42 5.46938 7.27619 5.21339 7.0202C4.95741 6.76421 4.81359 6.41702 4.81359 6.055C4.81359 5.69298 4.95741 5.34579 5.21339 5.0898C5.46938 4.83381 5.81657 4.69 6.17859 4.69C6.37083 4.6682 6.5655 4.68725 6.74986 4.7459C6.93422 4.80455 7.10412 4.90148 7.24842 5.03034C7.39272 5.1592 7.50818 5.31709 7.58723 5.49367C7.66628 5.67025 7.70715 5.86153 7.70715 6.055C7.70715 6.24847 7.66628 6.43975 7.58723 6.61633C7.50818 6.79291 7.39272 6.9508 7.24842 7.07966C7.10412 7.20852 6.93422 7.30545 6.74986 7.3641C6.5655 7.42275 6.37083 7.4418 6.17859 7.42ZM16.9586 16.3975H14.3336V12.1712C14.3336 11.1125 13.9573 10.4213 13.0036 10.4213C12.7084 10.4234 12.421 10.516 12.1801 10.6865C11.9391 10.8571 11.7563 11.0973 11.6561 11.375C11.5876 11.5807 11.558 11.7973 11.5686 12.0137V16.3887H8.94359C8.94359 16.3887 8.94359 9.23125 8.94359 8.51375H11.5686V9.625C11.8071 9.21122 12.1539 8.87033 12.5717 8.63905C12.9896 8.40777 13.4626 8.29487 13.9398 8.3125C15.6898 8.3125 16.9586 9.44125 16.9586 11.865V16.3975Z" fill="white"/>
</g>
</svg>
